<svg xmlns="http://www.w3.org/2000/svg"  viewBox="0 0 64 64" width="512px" height="512px"><linearGradient id="pqP~Zj71E2bSL1JfuUS0Ta" x1="25" x2="25" y1="18" y2="26" gradientUnits="userSpaceOnUse" spreadMethod="reflect"><stop offset="0" stop-color="#6dc7ff"/><stop offset="1" stop-color="#e6abff"/></linearGradient><path fill="url(#pqP~Zj71E2bSL1JfuUS0Ta)" d="M27,18v2c-1.2,0-2,0.5-2,2.2V26h-2v-8h2v1.3C25.4,18.4,26,18,27,18z"/><linearGradient id="pqP~Zj71E2bSL1JfuUS0Tb" x1="17.5" x2="17.5" y1="14" y2="26" gradientUnits="userSpaceOnUse" spreadMethod="reflect"><stop offset="0" stop-color="#6dc7ff"/><stop offset="1" stop-color="#e6abff"/></linearGradient><path fill="url(#pqP~Zj71E2bSL1JfuUS0Tb)" d="M21.364,20.936C20.945,20.455,20.345,20.1,19.6,20c0.921-0.458,1.4-1.271,1.4-2.8 c0-1.8-1.469-3.2-3.269-3.2H13v12h4.7c2.3,0,4.3-0.6,4.3-3.3C22,22.055,21.773,21.427,21.364,20.936z M15,16h2.356 c1.131,0,1.602,0.6,1.602,1.5c0,1.1-0.754,1.5-1.602,1.5H15V16z M17.716,24H15v-3h2.716c1.164,0,1.94,0.387,1.94,1.548 C19.656,23.613,18.977,24,17.716,24z"/><linearGradient id="pqP~Zj71E2bSL1JfuUS0Tc" x1="40.5" x2="40.5" y1="38" y2="50" gradientUnits="userSpaceOnUse" spreadMethod="reflect"><stop offset="0" stop-color="#6dc7ff"/><stop offset="1" stop-color="#e6abff"/></linearGradient><path fill="url(#pqP~Zj71E2bSL1JfuUS0Tc)" d="M44.364,44.936C43.945,44.455,43.345,44.1,42.6,44c0.921-0.458,1.4-1.271,1.4-2.8 c0-1.8-1.469-3.2-3.269-3.2H36v12h4.7c2.3,0,4.3-0.6,4.3-3.3C45,46.055,44.773,45.427,44.364,44.936z M38,40h2.356 c1.131,0,1.602,0.6,1.602,1.5c0,1.1-0.754,1.5-1.602,1.5H38V40z M40.716,48H38v-3h2.716c1.164,0,1.94,0.387,1.94,1.548 C42.656,47.613,41.977,48,40.716,48z"/><linearGradient id="pqP~Zj71E2bSL1JfuUS0Td" x1="32" x2="32" y1="7" y2="57" gradientUnits="userSpaceOnUse" spreadMethod="reflect"><stop offset="0" stop-color="#1a6dff"/><stop offset="1" stop-color="#c822ff"/></linearGradient><path fill="url(#pqP~Zj71E2bSL1JfuUS0Td)" d="M33,31V7H7v26h24v24h26V31H33z M9,31V9h22v22H9z M55,55H33V33h22V55z"/><linearGradient id="pqP~Zj71E2bSL1JfuUS0Te" x1="49" x2="49" y1="42" y2="50" gradientUnits="userSpaceOnUse" spreadMethod="reflect"><stop offset="0" stop-color="#6dc7ff"/><stop offset="1" stop-color="#e6abff"/></linearGradient><path fill="url(#pqP~Zj71E2bSL1JfuUS0Te)" d="M52,44c0-1.479-1.6-2-3-2c-1.26,0-2.43,0.575-2.653,2h1.568c0.15-0.344,0.47-0.5,1.085-0.5 c0.7,0,1.31,0.313,1.31,0.8v0.2c-0.4,0.2-2.3,0.7-2.3,0.7c-0.9,0.2-2.01,0.9-2.01,2.4s1.11,2.4,2.31,2.4c0.8,0,1.5-0.3,2.1-0.9 c0,0.2-0.01,0.65-0.01,0.9H52C52,49.8,52,44,52,44z M50,47.216c0,0.9-0.664,1.238-1.226,1.238c-0.45,0-1.024-0.338-1.024-0.9 s0.581-0.847,1.046-1.039c0,0,1.092-0.424,1.204-0.311V47.216z"/></svg>